<svg width="40" height="39" viewBox="0 0 40 39" fill="none" xmlns="http://www.w3.org/2000/svg">
<path d="M38.7476 16.3413L36.8183 15.2299C36.0596 14.7926 35.199 14.5625 34.3226 14.5625H28.75C28.0597 14.5625 27.5 14.0028 27.5 13.3125V2.9875C27.5 1.78633 26.5259 0.8125 25.3247 0.8125H25.3173C24.3816 0.8125 23.5504 1.41156 23.2544 2.29961L20.8545 8.57734C20.2984 10.0313 19.3041 11.2763 18.009 12.1397L12.5 15.8125V34.5625H13.6151C14.5215 34.5625 15.4102 34.8087 16.1877 35.2751L20.0623 37.5999C20.8398 38.0662 21.7285 38.3125 22.6349 38.3125H33.3332C34.4154 38.3125 35.4676 37.9616 36.333 37.3124L39.0003 35.3124C39.6295 34.8404 40 34.0994 40 33.3125V18.5075C40 17.6135 39.5227 16.7875 38.7476 16.3413Z" fill="black"/>
<path d="M10 15.8125V34.5625C10 35.9431 8.88063 37.0625 7.5 37.0625H0V13.3125H7.5C8.88063 13.3125 10 14.4317 10 15.8125ZM7.5 32.0625C7.5 30.6819 6.38063 29.5625 5 29.5625C3.61937 29.5625 2.5 30.6819 2.5 32.0625C2.5 33.4431 3.61937 34.5625 5 34.5625C6.38063 34.5625 7.5 33.4431 7.5 32.0625Z" fill="black"/>
</svg>
