<svg width="40" height="38" viewBox="0 0 40 38" fill="none" xmlns="http://www.w3.org/2000/svg">
<path d="M1.25242 21.9712L3.18172 23.0826C3.94039 23.5199 4.80101 23.75 5.67742 23.75H11.25C11.9403 23.75 12.5 24.3097 12.5 25V35.325C12.5 36.5262 13.4741 37.5 14.6753 37.5H14.6827C15.6184 37.5 16.4496 36.9009 16.7456 36.0129L19.1455 29.7352C19.7016 28.2812 20.6959 27.0362 21.991 26.1728L27.5 22.5V3.75H26.3849C25.4785 3.75 24.5898 3.50375 23.8123 3.03742L19.9377 0.712578C19.1602 0.24625 18.2715 0 17.3651 0H6.6668C5.58461 0 4.53242 0.350938 3.66695 1.00008L0.999687 3.00008C0.370468 3.47211 0 4.21313 0 5V19.805C0 20.699 0.477266 21.525 1.25242 21.9712Z" fill="black"/>
<path d="M30 22.5V3.75C30 2.36937 31.1194 1.25 32.5 1.25H40V25H32.5C31.1194 25 30 23.8808 30 22.5ZM32.5 6.25C32.5 7.63063 33.6194 8.75 35 8.75C36.3806 8.75 37.5 7.63063 37.5 6.25C37.5 4.86937 36.3806 3.75 35 3.75C33.6194 3.75 32.5 4.86937 32.5 6.25Z" fill="black"/>
</svg>
